<?xml version="1.0" encoding="utf-8"?>
<!-- Generator: Adobe Illustrator 16.0.0, SVG Export Plug-In . SVG Version: 6.00 Build 0)  -->
<!DOCTYPE svg PUBLIC "-//W3C//DTD SVG 1.1//EN" "http://www.w3.org/Graphics/SVG/1.1/DTD/svg11.dtd">
<svg version="1.1" id="Capa_1" xmlns="http://www.w3.org/2000/svg" xmlns:xlink="http://www.w3.org/1999/xlink" x="0px" y="0px"
	 width="283.444px" height="86.05px" viewBox="0 0 283.444 86.05" enable-background="new 0 0 283.444 86.05" xml:space="preserve">
<g>
	<path fill="#222220" d="M12.832,5.54c2.072,0,3.701,1.628,3.701,3.701c0,2.072-1.629,3.701-3.701,3.701
		c-2.073,0-3.702-1.629-3.702-3.701C9.129,7.168,10.758,5.54,12.832,5.54z M10.24,24.345c0-1.852,0.963-2.74,2.739-2.74
		c1.851,0,2.888,0.889,2.888,2.74v36.573c0,1.851-0.963,2.739-2.813,2.739s-2.813-0.889-2.813-2.739V24.345z"/>
	<path fill="#222220" d="M28.527,25.159c0-2.147,0.888-3.258,2.738-3.258c1.777,0,2.74,1.036,2.74,3.035v2.887
		c1.998-3.924,6.367-6.588,10.734-6.588c4.887,0,9.329,3.109,11.18,7.773c2.369-4.664,7.478-7.773,13.03-7.773
		c7.552,0,13.845,5.33,13.845,13.104v26.505c0,1.776-0.888,2.665-2.739,2.665s-2.813-0.889-2.813-2.665V36.708
		c0-5.33-3.184-9.772-8.588-9.772c-6.293,0-10.365,5.405-10.365,11.624v22.284c0,1.851-0.888,2.739-2.665,2.739
		c-1.851,0-2.739-0.889-2.739-2.739V36.708c0-5.404-3.258-9.625-8.662-9.625c-6.293,0-10.291,5.258-10.291,11.477v22.284
		c0,1.851-0.889,2.739-2.666,2.739c-1.851,0-2.738-0.889-2.738-2.739V25.159z"/>
	<path fill="#222220" d="M93.159,24.122c0-1.925,0.889-2.887,2.739-2.887s2.739,0.962,2.739,2.887v5.627
		c1.629-4.664,7.182-8.514,12.216-8.514c11.476,0,17.251,11.179,17.251,21.914c0,10.734-5.775,21.396-17.251,21.396
		c-5.257,0-10.069-2.666-12.216-7.33v20.508c0,1.852-1.332,2.961-2.813,2.961c-1.776,0-2.665-1.035-2.665-3.035V24.122z
		 M122.551,43.445c0-7.329-2.962-16.731-11.18-16.731c-8.588,0-12.29,8.662-12.29,16.436c0,7.922,3.702,16.361,12.29,16.361
		C119.589,59.511,122.551,50.923,122.551,43.445z"/>
	<path fill="#222220" d="M153.571,21.53c9.848,0,15.029,5.924,15.029,13.4v26.58c0,1.406-0.962,2.738-2.739,2.738
		c-1.776,0-2.665-1.258-2.739-2.664c-0.073-1.407-0.073-1.852-0.073-2.518c-3.184,3.405-7.922,5.182-12.661,5.182
		c-7.255,0-14.215-4.071-14.215-12.363c0-8.662,7.922-13.104,15.696-13.104c4.22,0,8.736,1.259,11.18,3.702V35.45
		c0-5.109-4.146-8.515-11.106-8.515c-4.812,0-7.922,1.776-10.217,1.776c-1.258,0-2.517-0.592-2.517-2.295
		c0-0.963,0.814-2.146,2.073-2.665C144.54,22.419,148.463,21.53,153.571,21.53z M151.35,59.067c5.627,0,11.624-2.962,11.624-8.07
		c0-4.516-5.627-7.107-11.105-7.107c-5.183,0-10.144,2.369-10.144,7.552C141.725,56.772,146.316,59.067,151.35,59.067z"/>
	<path fill="#222220" d="M177.041,24.862c0-1.925,0.889-2.887,2.665-2.887c1.852,0,2.739,0.962,2.739,2.887v3.555
		c2.739-4.887,7.922-7.182,12.957-7.182c3.924,0,5.404,1.776,5.404,3.405c0,1.481-1.185,2.888-2.888,2.888
		c-1.999,0-2.517-0.519-5.034-0.519c-4.812,0-10.439,5.034-10.439,10.735v23.246c0,1.777-0.888,2.666-2.739,2.666
		c-1.776,0-2.665-0.889-2.665-2.666V24.862z"/>
	<path fill="#222220" d="M239.526,39.669c0,3.998-0.666,5.998-4.146,5.998h-25.024c0,6.662,6.663,13.4,13.253,13.4
		c4.146,0,6.737-0.814,10.068-3.776c0.963-0.888,2.147-1.333,3.184-1.333c1.406,0,2.443,0.814,2.443,2.518
		c0,0.592-0.148,1.111-0.519,1.48c-3.479,4.369-8.588,6.59-15.177,6.59c-12.216,0-19.102-9.921-19.102-21.619
		c0-10.883,6.367-21.766,17.917-21.766C233.381,21.161,239.526,28.86,239.526,39.669z M234.047,40.336
		c0-7.552-4.368-13.696-11.401-13.696c-7.107,0-12.216,6.293-12.216,13.696H234.047z"/>
	<path fill="#222220" d="M264.624,58.993c3.998,0,9.106-1.629,9.106-6.441c0-3.627-4.59-5.701-8.514-7.107
		c-6.737-2.443-14.882-5.701-14.882-11.994c0-8.365,7.033-12.067,14.882-12.067c3.85,0,7.921,0.74,11.475,2.665
		c0.963,0.519,1.407,1.555,1.407,2.592c0,1.703-1.11,2.591-2.518,2.591c-0.518,0-1.11-0.147-1.629-0.444
		c-1.776-1.036-5.404-1.925-8.884-1.925c-4.368,0-8.885,1.556-8.885,5.923c0,3.406,5.775,5.183,11.328,7.479
		c6.07,2.517,12.29,5.107,12.29,11.771c0,9.105-7.996,12.438-15.326,12.438c-5.33,0-9.624-1.777-13.696-4.368
		c-0.666-0.444-0.963-1.333-0.963-2.222c0-2.072,1.037-3.035,2.443-3.035c0.667,0,1.407,0.297,2.147,0.814
		C256.998,57.364,260.478,58.993,264.624,58.993z"/>
</g>
</svg>
