<?xml version="1.0" encoding="utf-8"?>
<!-- Generator: Adobe Illustrator 16.0.0, SVG Export Plug-In . SVG Version: 6.00 Build 0)  -->
<!DOCTYPE svg PUBLIC "-//W3C//DTD SVG 1.1//EN" "http://www.w3.org/Graphics/SVG/1.1/DTD/svg11.dtd">
<svg version="1.1" id="Capa_1" xmlns="http://www.w3.org/2000/svg" xmlns:xlink="http://www.w3.org/1999/xlink" x="0px" y="0px"
	 width="436.979px" height="117.364px" viewBox="0 0 436.979 117.364" enable-background="new 0 0 436.979 117.364"
	 xml:space="preserve">
<g>
	<path fill="#222220" d="M136.813,35.302c0-15.006-12.209-27.215-27.215-27.215c-10.443,0-19.527,5.916-24.089,14.57L85.5,22.653
		l-12.449,22.92L60.51,22.646l-0.012,0.007C55.936,14.001,46.854,8.087,36.413,8.087c-15.006,0-27.215,12.209-27.215,27.215
		c0,5.373,1.572,10.384,4.27,14.607c0.069,0.518,0.291,1.018,0.686,1.42l1.396,1.422c0.913,1.092,1.913,2.106,2.984,3.042
		l6.005,6.122c0.682,1.154,3.771,7.092-1.545,11.592c-1.054,0.893-1.186,2.471-0.293,3.523c0.494,0.585,1.199,0.885,1.91,0.885
		c0.57,0,1.144-0.193,1.613-0.592c5.82-4.926,5.375-11.342,3.76-15.58c2.062,0.502,4.215,0.773,6.43,0.773
		c13.949,0,25.475-10.551,27.03-24.09L70.211,50.8L55.338,78.179c-2.354,3.449-3.734,7.611-3.734,12.093
		c0,0.155,0.02,0.306,0.023,0.46l-1.645-1.902l-0.139-0.148c-0.385-0.378-3.912-3.734-8.434-3.639
		c-2.476,0.029-4.794,1.088-6.706,3.06c-0.961,0.991-0.937,2.574,0.055,3.535c0.992,0.962,2.575,0.937,3.535-0.055
		c3.298-3.4,7.106-0.218,7.983,0.606l9.343,10.811c0.157,0.182,0.339,0.324,0.529,0.449c3.938,5.059,10.069,8.332,16.964,8.332
		c7.753,0,14.541-4.139,18.325-10.309l0.006,0.005l38.338-47.929l-0.006-0.006C134.147,48.713,136.813,42.313,136.813,35.302z
		 M80.834,70.22c-2.4-0.928-4.998-1.457-7.721-1.457c-2.742,0-5.357,0.536-7.771,1.477l7.724-14.22L80.834,70.22z M90.887,78.181
		L75.906,50.792l6.672-12.283c1.593,13.5,13.099,24.008,27.021,24.008c2.58,0,5.074-0.368,7.441-1.043L94.584,89.548
		C94.443,85.345,93.112,81.44,90.887,78.181z M109.598,13.087c12.25,0,22.215,9.965,22.215,22.215s-9.965,22.215-22.215,22.215
		s-22.216-9.965-22.216-22.215S97.348,13.087,109.598,13.087z M36.413,57.517c-5.5,0-10.535-2.013-14.418-5.335l-2.77-2.822
		c-3.14-3.832-5.027-8.728-5.027-14.058c0-12.25,9.965-22.215,22.215-22.215s22.215,9.965,22.215,22.215
		S48.663,57.517,36.413,57.517z M73.114,106.78c-9.104,0-16.51-7.406-16.51-16.509s7.406-16.509,16.51-16.509
		c9.102,0,16.507,7.406,16.507,16.509S82.215,106.78,73.114,106.78z"/>
	<g>
		<path fill="#222220" d="M163.875,23.936c2.072,0,3.701,1.629,3.701,3.702c0,2.072-1.629,3.701-3.701,3.701
			c-2.073,0-3.702-1.629-3.702-3.701C160.173,25.564,161.802,23.936,163.875,23.936z M161.284,42.741c0-1.852,0.963-2.74,2.739-2.74
			c1.851,0,2.888,0.889,2.888,2.74v36.573c0,1.851-0.963,2.739-2.813,2.739s-2.813-0.889-2.813-2.739V42.741z"/>
		<path fill="#222220" d="M179.571,43.556c0-2.147,0.888-3.258,2.738-3.258c1.777,0,2.74,1.036,2.74,3.035v2.887
			c1.998-3.924,6.367-6.588,10.734-6.588c4.887,0,9.329,3.109,11.18,7.773c2.369-4.664,7.478-7.773,13.03-7.773
			c7.552,0,13.845,5.33,13.845,13.104v26.506c0,1.775-0.888,2.664-2.739,2.664s-2.813-0.889-2.813-2.664V55.104
			c0-5.33-3.184-9.772-8.588-9.772c-6.293,0-10.365,5.405-10.365,11.624v22.285c0,1.85-0.888,2.738-2.665,2.738
			c-1.851,0-2.739-0.889-2.739-2.738V55.104c0-5.404-3.258-9.625-8.662-9.625c-6.293,0-10.291,5.258-10.291,11.477v22.285
			c0,1.85-0.889,2.738-2.666,2.738c-1.851,0-2.738-0.889-2.738-2.738V43.556z"/>
		<path fill="#222220" d="M244.203,42.519c0-1.925,0.889-2.887,2.739-2.887s2.739,0.962,2.739,2.887v5.627
			c1.629-4.664,7.182-8.514,12.216-8.514c11.476,0,17.251,11.179,17.251,21.914c0,10.734-5.775,21.396-17.251,21.396
			c-5.257,0-10.069-2.666-12.216-7.33V96.12c0,1.852-1.332,2.961-2.813,2.961c-1.776,0-2.665-1.035-2.665-3.035V42.519z
			 M273.595,61.842c0-7.329-2.962-16.731-11.18-16.731c-8.588,0-12.29,8.662-12.29,16.436c0,7.922,3.702,16.361,12.29,16.361
			C270.633,77.907,273.595,69.319,273.595,61.842z"/>
		<path fill="#222220" d="M304.615,39.927c9.848,0,15.029,5.924,15.029,13.4v26.58c0,1.406-0.962,2.738-2.739,2.738
			c-1.776,0-2.665-1.258-2.739-2.664c-0.073-1.407-0.073-1.852-0.073-2.518c-3.184,3.405-7.922,5.182-12.661,5.182
			c-7.255,0-14.215-4.071-14.215-12.363c0-8.662,7.922-13.104,15.696-13.104c4.22,0,8.736,1.259,11.18,3.702v-7.033
			c0-5.109-4.146-8.515-11.106-8.515c-4.812,0-7.922,1.776-10.217,1.776c-1.258,0-2.517-0.592-2.517-2.295
			c0-0.963,0.814-2.146,2.073-2.665C295.583,40.815,299.507,39.927,304.615,39.927z M302.394,77.464
			c5.627,0,11.624-2.962,11.624-8.07c0-4.516-5.627-7.107-11.105-7.107c-5.183,0-10.144,2.369-10.144,7.552
			C292.769,75.169,297.36,77.464,302.394,77.464z"/>
		<path fill="#222220" d="M328.084,43.259c0-1.925,0.889-2.887,2.665-2.887c1.852,0,2.739,0.962,2.739,2.887v3.555
			c2.739-4.887,7.922-7.182,12.957-7.182c3.924,0,5.404,1.776,5.404,3.405c0,1.48-1.185,2.888-2.888,2.888
			c-1.999,0-2.517-0.518-5.034-0.518c-4.812,0-10.439,5.033-10.439,10.734v23.246c0,1.777-0.888,2.666-2.739,2.666
			c-1.776,0-2.665-0.889-2.665-2.666V43.259z"/>
		<path fill="#222220" d="M390.57,58.065c0,3.998-0.666,5.998-4.146,5.998H361.4c0,6.662,6.663,13.4,13.253,13.4
			c4.146,0,6.737-0.814,10.068-3.776c0.963-0.888,2.147-1.333,3.184-1.333c1.406,0,2.443,0.814,2.443,2.518
			c0,0.592-0.148,1.111-0.519,1.48c-3.479,4.369-8.588,6.59-15.177,6.59c-12.216,0-19.102-9.921-19.102-21.619
			c0-10.883,6.367-21.766,17.917-21.766C384.425,39.558,390.57,47.257,390.57,58.065z M385.091,58.732
			c0-7.552-4.368-13.696-11.401-13.696c-7.107,0-12.216,6.293-12.216,13.696H385.091z"/>
		<path fill="#222220" d="M415.667,77.39c3.998,0,9.106-1.629,9.106-6.441c0-3.627-4.589-5.701-8.513-7.107
			c-6.737-2.443-14.882-5.701-14.882-11.994c0-8.365,7.033-12.067,14.882-12.067c3.85,0,7.921,0.74,11.474,2.665
			c0.963,0.519,1.408,1.555,1.408,2.592c0,1.703-1.111,2.591-2.518,2.591c-0.518,0-1.111-0.147-1.629-0.444
			c-1.777-1.036-5.405-1.925-8.884-1.925c-4.368,0-8.885,1.556-8.885,5.923c0,3.406,5.775,5.184,11.328,7.479
			c6.07,2.517,12.291,5.107,12.291,11.771c0,9.105-7.996,12.438-15.327,12.438c-5.33,0-9.624-1.777-13.696-4.368
			c-0.666-0.444-0.963-1.333-0.963-2.222c0-2.072,1.037-3.035,2.443-3.035c0.667,0,1.407,0.297,2.147,0.814
			C408.042,75.761,411.522,77.39,415.667,77.39z"/>
	</g>
</g>
</svg>
